<svg width="60" height="48" viewBox="0 0 60 48" fill="none" xmlns="http://www.w3.org/2000/svg">
<path d="M59.8451 7.15729C59.5746 5.79486 58.9705 4.54811 58.1269 3.51814C57.949 3.29373 57.7631 3.09275 57.5617 2.89178C56.067 1.38967 53.9691 0.452637 51.6772 0.452637H8.32277C6.03094 0.452637 3.94055 1.38967 2.43879 2.89178C2.23781 3.09275 2.05195 3.29373 1.87359 3.51814C1.02949 4.54799 0.425391 5.79486 0.162422 7.15729C0.054375 7.68311 0 8.2265 0 8.77588V39.2251C0 40.3932 0.247734 41.5161 0.689531 42.5301C1.09934 43.4981 1.70355 44.3739 2.43867 45.1083C2.625 45.2942 2.81004 45.4651 3.01195 45.635C4.45172 46.8274 6.3102 47.5475 8.32277 47.5475H51.6772C53.6905 47.5475 55.5571 46.8274 56.9885 45.6275C57.1898 45.4651 57.3758 45.2942 57.5617 45.1083C58.2964 44.3739 58.9005 43.4981 59.3188 42.5301V42.5226C59.7605 41.5086 59.9999 40.3932 59.9999 39.2252V8.77588C60 8.2265 59.9464 7.68311 59.8451 7.15729ZM5.45027 5.90291C6.19383 5.16018 7.19238 4.71053 8.32277 4.71053H51.6772C52.8076 4.71053 53.815 5.16018 54.5497 5.90291C54.6812 6.03521 54.8051 6.18264 54.9144 6.32912L32.1909 26.1332C31.5642 26.6825 30.7901 26.9538 30 26.9538C29.2179 26.9538 28.4442 26.6825 27.8092 26.1332L5.09438 6.32068C5.19492 6.1742 5.31879 6.03521 5.45027 5.90291ZM4.25789 39.2251V10.7268L20.7021 25.0723L4.26621 39.4026C4.25789 39.3482 4.25789 39.2871 4.25789 39.2251ZM51.6772 43.2888H8.32277C7.58672 43.2888 6.89801 43.0953 6.3102 42.7553L23.6514 27.6429L25.2703 29.0513C26.6251 30.2286 28.3205 30.8248 30 30.8248C31.6882 30.8248 33.3834 30.2286 34.7381 29.0513L36.3562 27.6429L53.6906 42.7553C53.102 43.0953 52.4133 43.2888 51.6772 43.2888ZM55.7421 39.2251C55.7421 39.2871 55.7421 39.3482 55.7341 39.4026L39.2984 25.0806L55.7421 10.7344V39.2251Z" fill="black"/>
</svg>
