<svg width="482" height="473" viewBox="0 0 482 473" fill="none" xmlns="http://www.w3.org/2000/svg">
<path d="M440.859 0.46875H372.887C361.665 0.46875 353.008 10.6362 353.008 22.9825C353.008 35.3287 361.986 45.4962 372.887 45.4962H440.859V137.004C440.859 149.713 449.837 159.517 460.738 159.517C471.639 159.517 480.617 149.35 480.617 137.004V45.8594C480.617 20.8037 462.662 0.46875 440.539 0.46875H440.859ZM19.8788 159.881C31.1006 159.881 39.7575 149.713 39.7575 137.367V45.8594H108.692C119.914 45.8594 128.571 35.6919 128.571 23.3456C128.571 10.9994 119.593 0.831875 108.692 0.831875H40.0781C17.955 0.831875 0 21.1669 0 46.2225V137.73C0 150.439 8.9775 160.244 19.8788 160.244V159.881ZM108.692 427.141H40.0781V335.633C40.0781 322.924 31.1006 313.119 20.1994 313.119C9.29813 313.119 0.320625 323.287 0.320625 335.633V427.141C0.320625 452.196 18.2756 472.531 40.3988 472.531H108.692C119.914 472.531 128.571 462.364 128.571 450.017C128.571 437.671 119.593 427.504 108.692 427.504V427.141ZM461.059 313.119C449.837 313.119 441.18 323.287 441.18 335.633V427.141H373.208C361.986 427.141 353.329 437.308 353.329 449.654C353.329 462.001 362.306 472.168 373.208 472.168H441.18C463.303 472.168 481.258 451.833 481.258 426.777V335.27C481.258 322.561 472.281 312.756 461.379 312.756L461.059 313.119Z" fill="#D90A2C"/>
<path d="M181.223 74.9095H114.212C92.0888 74.9095 74.1338 95.2445 74.1338 120.3V176.221C74.1338 201.277 92.0888 221.612 114.212 221.612H181.223C203.346 221.612 221.301 201.277 221.301 176.221V120.3C221.301 95.2445 203.346 74.9095 181.223 74.9095ZM181.223 176.221H114.212V120.3H181.223V176.221ZM408.866 352.7V296.779C408.866 271.723 390.911 251.388 368.788 251.388H301.778C279.654 251.388 261.699 271.723 261.699 296.779V352.7C261.699 377.755 279.654 398.09 301.778 398.09H368.788C390.911 398.09 408.866 377.755 408.866 352.7ZM301.778 296.779H368.788V352.7H301.778V296.779ZM261.699 158.428H342.497V203.819H261.699V158.428ZM261.699 93.0658H408.866V138.456H261.699V93.0658ZM140.503 269.181H221.301V314.572H140.503V269.181ZM74.1338 334.544H221.301V379.934H74.1338V334.544Z" fill="white"/>
</svg>
